<?xml version="1.0" standalone="no"?><svg xmlns="http://www.w3.org/2000/svg" viewBox="0 0 1440 320"><path fill="#ff5500" fill-opacity="1" d="M0,192L30,213.3C60,235,120,277,180,277.3C240,277,300,235,360,192C420,149,480,107,540,106.7C600,107,660,149,720,165.3C780,181,840,171,900,149.3C960,128,1020,96,1080,112C1140,128,1200,192,1260,202.7C1320,213,1380,171,1410,149.3L1440,128L1440,0L1410,0C1380,0,1320,0,1260,0C1200,0,1140,0,1080,0C1020,0,960,0,900,0C840,0,780,0,720,0C660,0,600,0,540,0C480,0,420,0,360,0C300,0,240,0,180,0C120,0,60,0,30,0L0,0Z"></path></svg>